<svg width="175" height="52" viewBox="0 0 175 52" fill="none" xmlns="http://www.w3.org/2000/svg">
<g opacity="0.9">
<path d="M63.4077 35.4778H59.1436C58.9831 35.4778 58.9029 35.3918 58.9029 35.2199V23.4419C58.9029 23.27 58.9831 23.184 59.1436 23.184H63.4077C64.8635 23.184 65.9983 23.5737 66.8122 24.3532C67.6375 25.1212 68.0502 26.2445 68.0502 27.7232V30.9901C68.0502 32.4459 67.6375 33.5578 66.8122 34.3258C65.9983 35.0938 64.8635 35.4778 63.4077 35.4778ZM60.9834 25.0925V33.5349H63.4077C65.0698 33.5349 65.9009 32.6924 65.9009 31.0073V27.7061C65.9009 25.9637 65.0698 25.0925 63.4077 25.0925H60.9834Z" fill="#616161"/>
<path d="M70.0765 27.2762C70.9591 26.6687 72.0825 26.3649 73.4466 26.3649C74.5585 26.3649 75.4296 26.6572 76.0601 27.2418C76.702 27.8149 77.0229 28.6861 77.0229 29.8553V34.876C77.0229 35.0136 76.9599 35.111 76.8338 35.1683C75.7219 35.5122 74.5699 35.6841 73.3778 35.6841C72.2659 35.6841 71.3489 35.4549 70.6267 34.9964C69.9046 34.5379 69.5435 33.81 69.5435 32.8127C69.5435 31.9072 69.8816 31.2251 70.5579 30.7666C71.2457 30.2966 72.1627 30.0617 73.309 30.0617C73.7675 30.0617 74.3407 30.1075 75.0284 30.1992V29.8725C75.0284 29.2535 74.8966 28.8122 74.633 28.5486C74.3808 28.2735 73.9395 28.1359 73.309 28.1359C72.4608 28.1359 71.7271 28.3193 71.1082 28.6861C70.9706 28.7893 70.856 28.7664 70.7643 28.6173L70.0765 27.5685C69.9963 27.4424 69.9963 27.345 70.0765 27.2762ZM71.5552 32.7955C71.5552 33.1853 71.7214 33.4776 72.0538 33.6724C72.3863 33.8558 72.8276 33.9475 73.3778 33.9475C73.9051 33.9475 74.4553 33.8788 75.0284 33.7412V31.7983C74.4094 31.7066 73.8535 31.6607 73.3606 31.6607C72.157 31.6607 71.5552 32.039 71.5552 32.7955Z" fill="#616161"/>
<path d="M81.0211 32.3657C81.0211 32.8356 81.1358 33.2025 81.365 33.4661C81.6057 33.7297 81.9439 33.8616 82.3795 33.8616C82.4826 33.8616 82.7176 33.8501 83.0844 33.8272C83.2678 33.8272 83.3595 33.9074 83.3595 34.0679V35.3746C83.3595 35.5466 83.2793 35.6383 83.1188 35.6498C82.7291 35.6727 82.4253 35.6841 82.2075 35.6841C81.2561 35.6841 80.4881 35.4262 79.9035 34.9104C79.3189 34.3831 79.0266 33.5807 79.0266 32.5032V24.6455C79.0266 24.485 79.1126 24.4048 79.2845 24.4048H80.5913C80.7403 24.4048 80.8263 24.4793 80.8492 24.6283L81.0039 26.6916H82.8437C83.0156 26.6916 83.1016 26.7718 83.1016 26.9323V28.1875C83.1016 28.348 83.0156 28.4282 82.8437 28.4282H81.0211V32.3657Z" fill="#616161"/>
<path d="M84.7352 27.2762C85.6178 26.6687 86.7412 26.3649 88.1053 26.3649C89.2171 26.3649 90.0883 26.6572 90.7188 27.2418C91.3607 27.8149 91.6816 28.6861 91.6816 29.8553V34.876C91.6816 35.0136 91.6186 35.111 91.4925 35.1683C90.3806 35.5122 89.2286 35.6841 88.0365 35.6841C86.9246 35.6841 86.0076 35.4549 85.2854 34.9964C84.5633 34.5379 84.2022 33.81 84.2022 32.8127C84.2022 31.9072 84.5403 31.2251 85.2166 30.7666C85.9044 30.2966 86.8214 30.0617 87.9677 30.0617C88.4262 30.0617 88.9993 30.1075 89.6871 30.1992V29.8725C89.6871 29.2535 89.5553 28.8122 89.2916 28.5486C89.0395 28.2735 88.5982 28.1359 87.9677 28.1359C87.1195 28.1359 86.3858 28.3193 85.7668 28.6861C85.6293 28.7893 85.5147 28.7664 85.423 28.6173L84.7352 27.5685C84.655 27.4424 84.655 27.345 84.7352 27.2762ZM86.2139 32.7955C86.2139 33.1853 86.3801 33.4776 86.7125 33.6724C87.0449 33.8558 87.4863 33.9475 88.0365 33.9475C88.5638 33.9475 89.114 33.8788 89.6871 33.7412V31.7983C89.0681 31.7066 88.5122 31.6607 88.0193 31.6607C86.8157 31.6607 86.2139 32.039 86.2139 32.7955Z" fill="#616161"/>
<path d="M101.199 35.4778H94.3043C94.1438 35.4778 94.0636 35.3918 94.0636 35.2199V23.4419C94.0636 23.27 94.1438 23.184 94.3043 23.184H95.9033C96.0638 23.184 96.1441 23.27 96.1441 23.4419V33.5693H101.199C101.371 33.5693 101.457 33.6495 101.457 33.81V35.2199C101.457 35.3918 101.371 35.4778 101.199 35.4778Z" fill="#616161"/>
<path d="M104.508 35.4778H103.012C102.84 35.4778 102.754 35.3918 102.754 35.2199V26.812C102.754 26.6515 102.84 26.5712 103.012 26.5712H104.508C104.668 26.5712 104.748 26.6515 104.748 26.812V35.2199C104.748 35.3918 104.668 35.4778 104.508 35.4778ZM104.559 23.4419C104.777 23.6482 104.886 23.9119 104.886 24.2328C104.886 24.5538 104.777 24.8232 104.559 25.041C104.353 25.2588 104.089 25.3676 103.768 25.3676C103.447 25.3676 103.178 25.2588 102.96 25.041C102.742 24.8232 102.633 24.5538 102.633 24.2328C102.633 23.9119 102.742 23.6482 102.96 23.4419C103.178 23.2241 103.447 23.1152 103.768 23.1152C104.089 23.1152 104.353 23.2241 104.559 23.4419Z" fill="#616161"/>
<path d="M111.096 24.7659C110.89 24.7315 110.632 24.7143 110.322 24.7143C109.875 24.7143 109.531 24.8576 109.291 25.1441C109.05 25.4192 108.93 25.8032 108.93 26.2961V26.6916H110.907C111.079 26.6916 111.165 26.7776 111.165 26.9495V28.1875C111.165 28.3594 111.079 28.4454 110.907 28.4454H108.93V35.2199C108.93 35.3918 108.844 35.4778 108.672 35.4778H107.193C107.021 35.4778 106.935 35.3918 106.935 35.2199V26.2961C106.935 25.2301 107.222 24.4105 107.795 23.8374C108.379 23.2642 109.119 22.9777 110.013 22.9777C110.448 22.9777 110.798 23.0006 111.062 23.0464C111.222 23.0579 111.302 23.1496 111.302 23.3215V24.5079C111.302 24.6799 111.234 24.7659 111.096 24.7659Z" fill="#616161"/>
<path d="M119.63 29.8897V31.6263C119.63 31.7868 119.544 31.867 119.372 31.867H114.145V32.3485C114.145 32.8643 114.306 33.2598 114.627 33.5349C114.959 33.7985 115.406 33.9303 115.968 33.9303C116.805 33.9303 117.613 33.6667 118.392 33.1394C118.53 33.0477 118.644 33.0649 118.736 33.191L119.441 34.1367C119.556 34.2628 119.538 34.3831 119.389 34.4977C118.392 35.2887 117.229 35.6841 115.899 35.6841C114.844 35.6841 113.95 35.3976 113.217 34.8244C112.495 34.2398 112.134 33.4088 112.134 32.3313V29.8897C112.134 28.709 112.5 27.8264 113.234 27.2418C113.968 26.6572 114.862 26.3649 115.916 26.3649C116.959 26.3649 117.836 26.6572 118.547 27.2418C119.269 27.8264 119.63 28.709 119.63 29.8897ZM117.687 29.8725C117.687 29.2765 117.521 28.8351 117.189 28.5486C116.856 28.262 116.432 28.1187 115.916 28.1187C114.736 28.1187 114.145 28.7033 114.145 29.8725V30.3196H117.687V29.8725Z" fill="#616161"/>
<path d="M126.894 30.182V33.5865H132.414C132.586 33.5865 132.672 33.6667 132.672 33.8272V35.2199C132.672 35.3919 132.586 35.4778 132.414 35.4778H125.054C124.894 35.4778 124.814 35.3919 124.814 35.2199V23.4419C124.814 23.27 124.894 23.184 125.054 23.184H132.173C132.345 23.184 132.431 23.27 132.431 23.4419V24.8347C132.431 24.9951 132.345 25.0754 132.173 25.0754H126.894V28.2907H131.726C131.898 28.2907 131.984 28.3766 131.984 28.5486V29.9241C131.984 30.0961 131.898 30.182 131.726 30.182H126.894Z" fill="#783E33"/>
<path d="M136.281 35.4778H134.803C134.631 35.4778 134.545 35.3919 134.545 35.2199V27.345C134.545 27.196 134.608 27.0928 134.734 27.0355C135.765 26.5885 136.906 26.3649 138.155 26.3649C139.405 26.3649 140.379 26.6802 141.078 27.3106C141.789 27.9296 142.144 28.8982 142.144 30.2164V35.2199C142.144 35.3919 142.064 35.4778 141.904 35.4778H140.408C140.236 35.4778 140.15 35.3919 140.15 35.2199V30.2508C140.15 29.4828 139.984 28.9441 139.651 28.6346C139.319 28.3136 138.82 28.1531 138.155 28.1531C137.559 28.1531 137.021 28.2162 136.539 28.3423V35.2199C136.539 35.3919 136.453 35.4778 136.281 35.4778Z" fill="#783E33"/>
<path d="M151.507 34.9104C151.507 37.5813 150.235 38.9167 147.69 38.9167C146.372 38.9167 145.254 38.5613 144.337 37.8506C144.222 37.7704 144.205 37.6558 144.285 37.5067L145.008 36.4407C145.099 36.2917 145.214 36.2688 145.352 36.3719C146.062 36.8878 146.836 37.1457 147.673 37.1457C148.338 37.1457 148.819 36.9737 149.117 36.6298C149.415 36.286 149.553 35.6899 149.53 34.8416C148.957 35.0938 148.32 35.2199 147.621 35.2199C146.544 35.2199 145.655 34.9162 144.956 34.3086C144.257 33.7011 143.907 32.8185 143.907 31.6607V30.0445C143.907 28.7721 144.268 27.8436 144.99 27.259C145.724 26.663 146.687 26.3649 147.879 26.3649C149.117 26.3649 150.263 26.5885 151.318 27.0355C151.444 27.0814 151.507 27.1788 151.507 27.3278V34.9104ZM145.919 31.6607C145.919 32.8643 146.549 33.4661 147.81 33.4661C148.601 33.4661 149.169 33.3228 149.513 33.0363V28.3423C149.134 28.2162 148.601 28.1531 147.913 28.1531C147.272 28.1531 146.779 28.2964 146.435 28.583C146.091 28.8581 145.919 29.3452 145.919 30.0445V31.6607Z" fill="#783E33"/>
<path d="M155.407 35.4778H153.911C153.739 35.4778 153.653 35.3919 153.653 35.2199V26.812C153.653 26.6515 153.739 26.5713 153.911 26.5713H155.407C155.568 26.5713 155.648 26.6515 155.648 26.812V35.2199C155.648 35.3919 155.568 35.4778 155.407 35.4778ZM155.459 23.4419C155.677 23.6483 155.785 23.9119 155.785 24.2329C155.785 24.5538 155.677 24.8232 155.459 25.041C155.252 25.2588 154.989 25.3677 154.668 25.3677C154.347 25.3677 154.077 25.2588 153.86 25.041C153.642 24.8232 153.533 24.5538 153.533 24.2329C153.533 23.9119 153.642 23.6483 153.86 23.4419C154.077 23.2241 154.347 23.1152 154.668 23.1152C154.989 23.1152 155.252 23.2241 155.459 23.4419Z" fill="#783E33"/>
<path d="M159.537 35.4778H158.058C157.886 35.4778 157.8 35.3919 157.8 35.2199V27.345C157.8 27.196 157.863 27.0928 157.989 27.0355C159.021 26.5885 160.162 26.3649 161.411 26.3649C162.661 26.3649 163.635 26.6802 164.334 27.3106C165.045 27.9296 165.4 28.8982 165.4 30.2164V35.2199C165.4 35.3919 165.32 35.4778 165.159 35.4778H163.664C163.492 35.4778 163.406 35.3919 163.406 35.2199V30.2508C163.406 29.4828 163.239 28.9441 162.907 28.6346C162.575 28.3136 162.076 28.1531 161.411 28.1531C160.815 28.1531 160.276 28.2162 159.795 28.3423V35.2199C159.795 35.3919 159.709 35.4778 159.537 35.4778Z" fill="#783E33"/>
<path d="M174.694 29.8897V31.6263C174.694 31.7868 174.608 31.8671 174.436 31.8671H169.209V32.3485C169.209 32.8643 169.37 33.2598 169.691 33.5349C170.023 33.7985 170.47 33.9304 171.032 33.9304C171.868 33.9304 172.677 33.6667 173.456 33.1394C173.594 33.0477 173.708 33.0649 173.8 33.191L174.505 34.1367C174.62 34.2628 174.602 34.3831 174.453 34.4978C173.456 35.2887 172.293 35.6842 170.963 35.6842C169.908 35.6842 169.014 35.3976 168.281 34.8245C167.558 34.2399 167.197 33.4088 167.197 32.3313V29.8897C167.197 28.7091 167.564 27.8264 168.298 27.2418C169.031 26.6572 169.925 26.3649 170.98 26.3649C172.023 26.3649 172.9 26.6572 173.611 27.2418C174.333 27.8264 174.694 28.7091 174.694 29.8897ZM172.751 29.8725C172.751 29.2765 172.585 28.8352 172.252 28.5486C171.92 28.262 171.496 28.1187 170.98 28.1187C169.799 28.1187 169.209 28.7033 169.209 29.8725V30.3196H172.751V29.8725Z" fill="#783E33"/>
<circle cx="26.9255" cy="27.4166" r="22.9255" fill="url(#paint0_radial_52_18)"/>
<g filter="url(#filter0_f_52_18)">
<ellipse cx="12.201" cy="23.3162" rx="5.96437" ry="6.8963" fill="#E1AE96"/>
</g>
<g filter="url(#filter1_f_52_18)">
<ellipse cx="33.6931" cy="13.9595" rx="5.96437" ry="11.072" transform="rotate(-57.6844 33.6931 13.9595)" fill="#E1AE96"/>
</g>
<g filter="url(#filter2_f_52_18)">
<ellipse cx="41.2239" cy="24.8987" rx="2.26677" ry="4.61639" transform="rotate(-10.0048 41.2239 24.8987)" fill="#E1AE96"/>
</g>
<path d="M14.2513 51.0877L4.80299 13.194L22.7264 8.71853C25.9581 7.95801 28.9838 7.99994 31.8033 8.8443C34.6229 9.68867 37.0147 11.271 38.9789 13.5911C40.96 15.9073 42.3614 18.7729 43.1829 22.1877L43.7413 24.5604C44.5659 28.0643 44.608 31.2946 43.8677 34.2512C43.1444 37.2038 41.6902 39.6822 39.5051 41.6864C37.337 43.6865 34.59 45.0959 31.2643 45.9144L14.2513 51.0877ZM9.30369 16.1984L16.1544 45.3095L30.092 41.9628C33.868 41.0742 39.1784 38.6436 40.7181 35.804C42.2749 32.9605 42.5429 29.37 41.5222 25.0327L41.0119 22.864C40.0192 18.6458 36.7469 16.0575 34.2084 14.1956C31.683 12.3127 27.4506 11.8971 23.8026 12.7197L9.30369 16.1984Z" fill="url(#paint1_linear_52_18)"/>
<path d="M14.0434 50.2246L6.42303 13.8104L23.1903 9.62404C26.3751 8.87455 29.355 8.90786 32.1299 9.72397C34.9048 10.5401 37.2565 12.0766 39.1852 14.3336C41.1307 16.5867 42.5037 19.3767 43.3044 22.7037L43.8484 25.0154C44.6518 28.4292 44.6852 31.5782 43.9487 34.4624C43.2289 37.3426 41.7905 39.7624 39.6333 41.7216C37.4929 43.677 34.7839 45.0578 31.5063 45.8641L14.0434 50.2246ZM10.7099 17.3518L16.626 45.3121L30.3616 42.0147C34.0829 41.1389 39.3191 38.7562 40.8427 35.9841C42.3831 33.208 42.6561 29.7071 41.6616 25.4813L41.1644 23.3684C40.1972 19.2586 37.0629 16.1424 34.5674 14.3336C32.0848 12.5043 27.8352 12.7109 24.2403 13.522L10.7099 17.3518Z" fill="#8C8A89"/>
<path d="M14.2513 51.0876L6.23665 13.624L23.4327 9.46426C26.6645 8.70374 29.6901 8.74567 32.5097 9.59003C35.3292 10.4344 37.7211 12.0167 39.6852 14.3369C41.6664 16.6531 43.0677 19.5186 43.8893 22.9334L44.4476 25.3062C45.2722 28.81 45.3143 32.0403 44.574 34.9969C43.8507 37.9495 42.3965 40.4279 40.2114 42.4321C38.0433 44.4322 35.2964 45.8416 31.9706 46.6602L14.2513 51.0876ZM9.778 16.4198L16.8607 46.0552L30.7983 42.7085C34.5743 41.8199 38.3779 39.8412 39.9177 37.0016C41.4744 34.158 41.7425 30.5676 40.7218 26.2303L40.2114 24.0616C39.2187 19.8433 37.4532 16.8033 34.9147 14.9413C32.3893 13.0584 27.9249 12.1184 24.2769 12.941L9.778 16.4198Z" fill="url(#paint2_radial_52_18)"/>
<path d="M18.6487 42.0709L13.3183 19.4198L24.1389 16.7163C26.09 16.2572 27.9177 16.2868 29.622 16.8052C31.3263 17.3236 32.7732 18.2911 33.9627 19.7077C35.1626 21.122 36.0129 22.8702 36.5137 24.9524L36.8542 26.3992C37.357 28.5357 37.3868 30.5044 36.9436 32.3053C36.5106 34.1038 35.6355 35.6123 34.3183 36.8307C33.0113 38.0468 31.354 38.902 29.3461 39.3964L18.6487 42.0709ZM16.0409 21.2569L20.2182 39.0075L28.6327 36.9866C30.9124 36.4501 33.2073 35.2493 34.1336 33.5208C35.0701 31.7899 35.2272 29.6021 34.6048 26.9574L34.2936 25.6351C33.6884 23.063 32.6178 21.2078 31.0819 20.0697C29.5539 18.9188 26.9968 18.6598 24.7944 19.1562L16.0409 21.2569Z" fill="url(#paint3_linear_52_18)"/>
<path d="M18.3518 44.3778L12.4981 19.3915L24.9478 16.2873C27.1924 15.759 29.2909 15.7758 31.2434 16.3376C33.1959 16.8994 34.8489 17.9633 36.2024 19.5292C37.5677 21.0924 38.5287 23.0304 39.0854 25.3431L39.4636 26.9501C40.022 29.3232 40.0388 31.5137 39.5139 33.5217C39.0008 35.5269 37.9826 37.2134 36.4592 38.581C34.9476 39.9458 33.0368 40.9122 30.7268 41.4801L18.3518 44.3778ZM14.9968 20.5203L19.8429 41.2092L29.9289 38.8047C32.5515 38.1875 35.1974 36.8309 36.2764 34.8992C37.3671 32.9647 37.5669 30.5287 36.8756 27.5912L36.5299 26.1224C35.8576 23.2654 34.8298 20.8414 33.0762 19.5884C31.3318 18.3211 27.7859 17.1642 25.2524 17.7361L14.9968 20.5203Z" fill="#704F38"/>
<path d="M18.1654 43.8186L12.2399 18.7067L24.3791 15.6755C26.5679 15.1604 28.6171 15.1888 30.5267 15.7607C32.4363 16.3326 34.0563 17.4042 35.3865 18.9757C36.7283 20.5444 37.6774 22.4851 38.2339 24.7979L38.612 26.4049C39.1705 28.778 39.199 30.9658 38.6976 32.9683C38.2078 34.968 37.2229 36.6466 35.7429 38.004C34.2745 39.3586 32.4141 40.3131 30.1616 40.8675L18.1654 43.8186ZM15.2881 20.7415L19.928 40.4578L29.3676 38.1912C31.9251 37.5894 34.5011 36.2492 35.544 34.326C36.5983 32.4001 36.7799 29.9684 36.0886 27.0308L35.7429 25.562C35.0706 22.7051 33.8748 20.6461 32.1556 19.385C30.4452 18.1098 27.5787 17.8283 25.108 18.3854L15.2881 20.7415Z" fill="url(#paint4_radial_52_18)"/>
</g>
<defs>
<filter id="filter0_f_52_18" x="0.236633" y="10.4199" width="23.9287" height="25.7926" filterUnits="userSpaceOnUse" color-interpolation-filters="sRGB">
<feFlood flood-opacity="0" result="BackgroundImageFix"/>
<feBlend mode="normal" in="SourceGraphic" in2="BackgroundImageFix" result="shape"/>
<feGaussianBlur stdDeviation="3" result="effect1_foregroundBlur_52_18"/>
</filter>
<filter id="filter1_f_52_18" x="17.805" y="0.184937" width="31.7762" height="27.5491" filterUnits="userSpaceOnUse" color-interpolation-filters="sRGB">
<feFlood flood-opacity="0" result="BackgroundImageFix"/>
<feBlend mode="normal" in="SourceGraphic" in2="BackgroundImageFix" result="shape"/>
<feGaussianBlur stdDeviation="3" result="effect1_foregroundBlur_52_18"/>
</filter>
<filter id="filter2_f_52_18" x="32.8512" y="14.3352" width="16.7453" height="21.127" filterUnits="userSpaceOnUse" color-interpolation-filters="sRGB">
<feFlood flood-opacity="0" result="BackgroundImageFix"/>
<feBlend mode="normal" in="SourceGraphic" in2="BackgroundImageFix" result="shape"/>
<feGaussianBlur stdDeviation="3" result="effect1_foregroundBlur_52_18"/>
</filter>
<radialGradient id="paint0_radial_52_18" cx="0" cy="0" r="1" gradientUnits="userSpaceOnUse" gradientTransform="translate(24.1297 22.9433) rotate(84.1737) scale(27.5411)">
<stop stop-color="#EECFC2"/>
<stop offset="0.378125" stop-color="#9E471F"/>
<stop offset="1" stop-color="#973C12"/>
</radialGradient>
<linearGradient id="paint1_linear_52_18" x1="4.74554" y1="13.4377" x2="37.9223" y2="44.1914" gradientUnits="userSpaceOnUse">
<stop stop-color="#B6B6B6"/>
<stop offset="1" stop-color="#696969"/>
</linearGradient>
<radialGradient id="paint2_radial_52_18" cx="0" cy="0" r="1" gradientUnits="userSpaceOnUse" gradientTransform="translate(6.79581 -7.99687) rotate(65.8874) scale(60.3033 55.4145)">
<stop stop-color="white"/>
<stop offset="0.808045" stop-color="white"/>
<stop offset="0.851804" stop-color="#ABB8BF"/>
<stop offset="0.923181" stop-color="#868C91"/>
<stop offset="0.973609" stop-color="white"/>
</radialGradient>
<linearGradient id="paint3_linear_52_18" x1="14.4376" y1="20.334" x2="35.3129" y2="35.6177" gradientUnits="userSpaceOnUse">
<stop stop-color="#969897"/>
<stop offset="1" stop-color="#2F2E2E"/>
</linearGradient>
<radialGradient id="paint4_radial_52_18" cx="0" cy="0" r="1" gradientUnits="userSpaceOnUse" gradientTransform="translate(13.1112 3.84947) rotate(65.8874) scale(40.8422 37.5311)">
<stop stop-color="white"/>
<stop offset="0.878125" stop-color="white"/>
<stop offset="0.95625" stop-color="#ABB8BF"/>
</radialGradient>
</defs>
</svg>
