<svg width="171" height="30" viewBox="0 0 171 30" fill="none" xmlns="http://www.w3.org/2000/svg">
<g opacity="0.9">
<g filter="url(#filter0_d_50_28)">
<path d="M6.3995 25.7663C5.72804 25.7663 5.15532 25.5401 4.68134 25.0879C4.22711 24.616 4 24.0458 4 23.3773V6.44797C4 5.75978 4.23699 5.17974 4.71096 4.70785C5.18494 4.23595 5.75766 4 6.42912 4C7.10059 4 7.66344 4.23595 8.11766 4.70785C8.57189 5.17974 8.799 5.75978 8.799 6.44797V23.4068C8.799 24.0556 8.56201 24.616 8.08804 25.0879C7.63381 25.5401 7.07097 25.7663 6.3995 25.7663Z" fill="white"/>
<path d="M17.4821 10.4001C17.8969 10.0855 18.4301 9.8299 19.0818 9.63327C19.7533 9.41699 20.4149 9.30885 21.0666 9.30885C22.8045 9.30885 24.2165 9.8299 25.3027 10.872C26.4087 11.8945 26.9617 13.2806 26.9617 15.0306V23.5248C26.9617 24.1736 26.7345 24.7242 26.2803 25.1764C25.8458 25.609 25.3126 25.8253 24.6807 25.8253C24.0289 25.8253 23.476 25.609 23.0217 25.1764C22.5675 24.7438 22.3404 24.2031 22.3404 23.5542V15.7974C22.3404 15.0896 22.0837 14.4702 21.5702 13.9393C21.0567 13.4085 20.4247 13.143 19.6743 13.143C18.9436 13.143 18.3215 13.3986 17.808 13.9098C17.2945 14.4211 17.0378 15.0503 17.0378 15.7974V23.5248C17.0378 24.1343 16.8107 24.6652 16.3565 25.1174C15.9022 25.5696 15.3591 25.7958 14.7272 25.7958C14.1149 25.7958 13.5817 25.5696 13.1275 25.1174C12.6733 24.6652 12.4462 24.1245 12.4462 23.4953V11.7273C12.4462 11.0981 12.6634 10.5574 13.0979 10.1052C13.5521 9.63328 14.1051 9.39733 14.7568 9.39733C14.9938 9.39733 15.29 9.54479 15.6455 9.83973C16.001 10.1347 16.3762 10.5377 16.7712 11.049L17.4821 10.4001Z" fill="white"/>
<path d="M36.1232 13.143C35.7084 13.143 35.3727 13.2315 35.116 13.4085C34.8592 13.5854 34.7309 13.8214 34.7309 14.1163C34.7309 14.4309 34.879 14.6865 35.1752 14.8831C35.4715 15.0798 36.0639 15.355 36.9526 15.709C37.8413 16.0432 38.5128 16.3185 38.967 16.5348C39.441 16.7511 40.1125 17.1345 40.9814 17.685C41.8504 18.2356 42.2849 19.2678 42.2849 20.7819C42.2849 22.2565 41.6924 23.4756 40.5075 24.4391C39.3423 25.3829 37.8413 25.8547 36.0047 25.8547C34.3655 25.8547 32.914 25.5205 31.65 24.852C30.4058 24.1638 29.7838 23.3773 29.7838 22.4925C29.7838 21.9616 29.9714 21.4995 30.3466 21.1063C30.7218 20.713 31.1761 20.5164 31.7093 20.5164C31.887 20.5164 32.0944 20.5557 32.3314 20.6344C32.5881 20.713 32.8646 20.8113 33.1608 20.9293L33.9903 21.4012C34.3458 21.5978 34.721 21.7551 35.116 21.8731C35.5307 21.9911 35.8862 22.0501 36.1824 22.0501C36.6367 22.0501 37.0218 21.9321 37.3377 21.6962C37.6537 21.4602 37.8117 21.1751 37.8117 20.8408C37.8117 20.31 37.2291 19.8381 36.0639 19.4251L34.8494 18.9532C33.4274 18.442 32.44 17.9898 31.887 17.5965C31.3341 17.2033 30.9292 16.7314 30.6725 16.1809C30.4157 15.6303 30.2874 15.0306 30.2874 14.3817C30.2874 12.9071 30.8601 11.6978 32.0055 10.754C33.1707 9.79057 34.642 9.30885 36.4194 9.30885C37.8808 9.30885 39.1546 9.62344 40.2408 10.2526C41.3468 10.8622 41.8998 11.5799 41.8998 12.4057C41.8998 12.9169 41.722 13.3593 41.3665 13.7329C41.0308 14.0868 40.6062 14.2638 40.0927 14.2638C39.7372 14.2638 39.4015 14.1851 39.0855 14.0278L38.2857 13.6739C37.4365 13.32 36.7156 13.143 36.1232 13.143Z" fill="white"/>
<path d="M45.4893 13.6444C44.8968 13.6444 44.3932 13.4478 43.9785 13.0545C43.5835 12.6416 43.386 12.1599 43.386 11.6093C43.386 11.0391 43.5835 10.5672 43.9785 10.1937C44.3932 9.8004 44.8968 9.60378 45.4893 9.60378H46.2299V6.94936C46.2299 6.32016 46.4471 5.78928 46.8816 5.35671C47.3358 4.90447 47.8789 4.67835 48.5109 4.67835C49.1428 4.67835 49.6761 4.89464 50.1105 5.32721C50.545 5.75978 50.7623 6.3005 50.7623 6.94936L50.7326 9.60378H52.1249C52.6977 9.60378 53.1815 9.8004 53.5765 10.1937C53.9715 10.5869 54.169 11.0686 54.169 11.6388C54.169 12.209 53.9715 12.6908 53.5765 13.084C53.1815 13.4773 52.6878 13.6739 52.0953 13.6739H50.7326L50.7623 23.4658C50.7623 24.095 50.545 24.6357 50.1105 25.0879C49.6761 25.5401 49.1428 25.7663 48.5109 25.7663C47.8789 25.7663 47.3457 25.5401 46.9112 25.0879C46.4767 24.6357 46.2595 24.095 46.2595 23.4658V13.6444H45.4893Z" fill="white"/>
<path d="M68.4037 9.36783C69.0357 9.36783 69.5689 9.55463 70.0034 9.92821C70.4379 10.3018 70.6551 10.7639 70.6551 11.3144V23.7017C70.6551 24.2719 70.4379 24.7635 70.0034 25.1764C69.5689 25.5893 69.0258 25.7958 68.3741 25.7958C68.1174 25.7958 67.7915 25.6286 67.3965 25.2944C67.0015 24.9404 66.6066 24.4882 66.2116 23.9377C65.5006 24.6848 64.8687 25.1862 64.3157 25.4418C63.7825 25.6974 63.0814 25.8253 62.2124 25.8253C60.1783 25.8253 58.4601 25.0388 57.0579 23.4658C55.6755 21.8731 54.9843 19.9265 54.9843 17.626C54.9843 15.2862 55.6854 13.32 57.0876 11.7273C58.4897 10.1347 60.2178 9.33834 62.2717 9.33834C63.1209 9.33834 63.8022 9.44648 64.3157 9.66277C64.8292 9.87905 65.4809 10.3411 66.2708 11.049C66.6658 10.5181 67.0509 10.1052 67.4262 9.81024C67.8014 9.5153 68.1272 9.36783 68.4037 9.36783ZM59.5463 17.626C59.5463 18.8058 59.8524 19.7791 60.4646 20.5459C61.0769 21.3127 61.8569 21.6962 62.8049 21.6962C63.7726 21.6962 64.5625 21.3226 65.1748 20.5754C65.787 19.8282 66.0931 18.8451 66.0931 17.626C66.0931 16.3873 65.7969 15.3944 65.2044 14.6472C64.6119 13.9 63.8121 13.5264 62.8049 13.5264C61.8372 13.5264 61.0472 13.9098 60.435 14.6767C59.8425 15.4238 59.5463 16.407 59.5463 17.626Z" fill="white"/>
<path d="M79.2991 10.4001C79.7139 10.0855 80.2471 9.8299 80.8988 9.63327C81.5703 9.41699 82.2319 9.30885 82.8836 9.30885C84.6215 9.30885 86.0335 9.8299 87.1197 10.872C88.2257 11.8945 88.7787 13.2806 88.7787 15.0306V23.5248C88.7787 24.1736 88.5515 24.7242 88.0973 25.1764C87.6628 25.609 87.1296 25.8253 86.4977 25.8253C85.8459 25.8253 85.293 25.609 84.8387 25.1764C84.3845 24.7438 84.1574 24.2031 84.1574 23.5542V15.7974C84.1574 15.0896 83.9007 14.4702 83.3872 13.9393C82.8737 13.4085 82.2417 13.143 81.4913 13.143C80.7606 13.143 80.1385 13.3986 79.625 13.9098C79.1115 14.4211 78.8548 15.0503 78.8548 15.7974V23.5248C78.8548 24.1343 78.6277 24.6652 78.1734 25.1174C77.7192 25.5696 77.1761 25.7958 76.5442 25.7958C75.9319 25.7958 75.3987 25.5696 74.9445 25.1174C74.4903 24.6652 74.2632 24.1245 74.2632 23.4953V11.7273C74.2632 11.0981 74.4804 10.5574 74.9149 10.1052C75.3691 9.63328 75.9221 9.39733 76.5738 9.39733C76.8108 9.39733 77.107 9.54479 77.4625 9.83973C77.818 10.1347 78.1932 10.5377 78.5882 11.049L79.2991 10.4001Z" fill="white"/>
<path d="M92.7561 13.6444C92.1636 13.6444 91.66 13.4478 91.2453 13.0545C90.8503 12.6416 90.6528 12.1599 90.6528 11.6093C90.6528 11.0391 90.8503 10.5672 91.2453 10.1937C91.66 9.8004 92.1636 9.60378 92.7561 9.60378H93.4967V6.94936C93.4967 6.32016 93.7139 5.78928 94.1484 5.35671C94.6026 4.90447 95.1457 4.67835 95.7777 4.67835C96.4096 4.67835 96.9429 4.89464 97.3773 5.32721C97.8118 5.75978 98.029 6.3005 98.029 6.94936L97.9994 9.60378H99.3917C99.9645 9.60378 100.448 9.8004 100.843 10.1937C101.238 10.5869 101.436 11.0686 101.436 11.6388C101.436 12.209 101.238 12.6908 100.843 13.084C100.448 13.4773 99.9546 13.6739 99.3621 13.6739H97.9994L98.029 23.4658C98.029 24.095 97.8118 24.6357 97.3773 25.0879C96.9429 25.5401 96.4096 25.7663 95.7777 25.7663C95.1457 25.7663 94.6125 25.5401 94.178 25.0879C93.7435 24.6357 93.5263 24.095 93.5263 23.4658V13.6444H92.7561Z" fill="white"/>
</g>
<g filter="url(#filter1_d_50_28)">
<path d="M115.684 4C117.536 4 119.062 4.32269 120.264 4.96806C121.465 5.59388 122.066 6.39571 122.066 7.37355C122.066 7.96026 121.869 8.46873 121.475 8.89898C121.081 9.32923 120.618 9.54436 120.086 9.54436C119.771 9.54436 119.456 9.48569 119.141 9.36835C118.846 9.25101 118.383 9.075 117.753 8.84031C117.122 8.58608 116.374 8.45896 115.507 8.45896C113.892 8.45896 112.582 9.05544 111.578 10.2484C110.573 11.4414 110.071 12.9961 110.071 14.9127C110.071 16.8488 110.564 18.4036 111.548 19.577C112.553 20.7309 113.872 21.3078 115.507 21.3078C116.472 21.3078 117.457 21.0927 118.462 20.6624L119.289 20.3104C119.545 20.1735 119.86 20.105 120.234 20.105C120.825 20.105 121.308 20.3202 121.682 20.7504C122.076 21.1611 122.273 21.6794 122.273 22.3052C122.273 23.3026 121.623 24.1435 120.323 24.828C119.043 25.5125 117.457 25.8547 115.566 25.8547C112.494 25.8547 109.973 24.8378 108.003 22.8039C106.053 20.7504 105.078 18.1298 105.078 14.942C105.078 11.7347 106.063 9.11411 108.033 7.0802C110.022 5.02673 112.572 4 115.684 4Z" fill="url(#paint0_linear_50_28)"/>
<path d="M129.279 23.5079C129.062 25.0138 128.264 25.7667 126.886 25.7667C126.157 25.7667 125.566 25.5418 125.113 25.092C124.68 24.6227 124.463 24.0262 124.463 23.3026C124.463 23.107 124.483 22.9506 124.522 22.8332L127.27 6.64017C127.388 5.93613 127.752 5.33964 128.363 4.85072C128.973 4.3618 129.673 4.11734 130.461 4.11734C131.229 4.11734 131.879 4.32269 132.41 4.73338C132.962 5.12452 133.366 5.71122 133.622 6.4935L136.96 17.6702L140.358 6.4935C140.83 4.90939 141.884 4.11734 143.519 4.11734C144.307 4.11734 144.996 4.35202 145.587 4.82139C146.178 5.29075 146.542 5.89701 146.68 6.64017L149.428 22.8332L149.487 23.3026C149.487 24.0066 149.26 24.5933 148.807 25.0627C148.354 25.5321 147.783 25.7667 147.094 25.7667C145.695 25.7667 144.888 25.0138 144.671 23.5079L142.958 11.8618L139.412 23.86C139.215 24.5836 138.94 25.0823 138.585 25.356C138.231 25.6298 137.689 25.7667 136.96 25.7667C135.739 25.7667 134.922 25.1311 134.508 23.86L130.963 11.8618L129.279 23.5079Z" fill="url(#paint1_linear_50_28)"/>
<path d="M151.814 22.3639C151.814 21.7185 152.011 21.1807 152.405 20.7504C152.799 20.3202 153.292 20.105 153.883 20.105C154.178 20.105 154.375 20.1246 154.473 20.1637C154.592 20.1833 155.182 20.3886 156.246 20.7798C157.31 21.1513 158.255 21.3371 159.082 21.3371C159.929 21.3371 160.619 21.1318 161.15 20.7211C161.682 20.3104 161.948 19.7726 161.948 19.1076C161.948 18.7752 161.859 18.4623 161.682 18.1689C161.525 17.8756 161.229 17.6311 160.796 17.4355C160.362 17.2204 159.634 16.9662 158.61 16.6728C157.605 16.3795 156.758 16.1252 156.069 15.9101C155.379 15.695 154.513 15.2452 153.469 14.5607C152.425 13.8762 151.903 12.5854 151.903 10.6884C151.903 8.75231 152.632 7.15843 154.089 5.90679C155.547 4.65515 157.428 4.02934 159.732 4.02934C161.367 4.02934 162.746 4.33247 163.868 4.93873C164.991 5.54499 165.552 6.28815 165.552 7.16821C165.552 7.79402 165.355 8.32206 164.961 8.75231C164.568 9.18256 164.065 9.39768 163.455 9.39768C163.199 9.39768 162.982 9.37813 162.805 9.33901C162.647 9.2999 162.342 9.20211 161.889 9.04566L161.032 8.75231C160.402 8.55674 159.841 8.45896 159.348 8.45896C158.659 8.45896 158.088 8.62519 157.635 8.95765C157.182 9.29012 156.955 9.72037 156.955 10.2484C156.955 10.6787 157.113 11.0111 157.428 11.2458C157.743 11.4609 158.058 11.6272 158.373 11.7445C158.688 11.8618 159.328 12.0574 160.294 12.3312C161.259 12.5854 162.046 12.8397 162.657 13.0939C163.287 13.3286 164.164 13.798 165.286 14.502C166.429 15.1865 167 16.6239 167 18.8143C167 20.9069 166.252 22.5985 164.755 23.8893C163.258 25.18 161.288 25.8254 158.846 25.8254C156.857 25.8254 155.182 25.5125 153.823 24.8867C152.484 24.2609 151.814 23.4688 151.814 22.5105V22.3639Z" fill="url(#paint2_linear_50_28)"/>
</g>
</g>
<defs>
<filter id="filter0_d_50_28" x="0" y="0" width="105.436" height="29.8547" filterUnits="userSpaceOnUse" color-interpolation-filters="sRGB">
<feFlood flood-opacity="0" result="BackgroundImageFix"/>
<feColorMatrix in="SourceAlpha" type="matrix" values="0 0 0 0 0 0 0 0 0 0 0 0 0 0 0 0 0 0 127 0" result="hardAlpha"/>
<feOffset/>
<feGaussianBlur stdDeviation="2"/>
<feComposite in2="hardAlpha" operator="out"/>
<feColorMatrix type="matrix" values="0 0 0 0 0.0809653 0 0 0 0 0.25716 0 0 0 0 0.370833 0 0 0 0.73 0"/>
<feBlend mode="normal" in2="BackgroundImageFix" result="effect1_dropShadow_50_28"/>
<feBlend mode="normal" in="SourceGraphic" in2="effect1_dropShadow_50_28" result="shape"/>
</filter>
<filter id="filter1_d_50_28" x="101.078" y="0" width="69.9218" height="29.8547" filterUnits="userSpaceOnUse" color-interpolation-filters="sRGB">
<feFlood flood-opacity="0" result="BackgroundImageFix"/>
<feColorMatrix in="SourceAlpha" type="matrix" values="0 0 0 0 0 0 0 0 0 0 0 0 0 0 0 0 0 0 127 0" result="hardAlpha"/>
<feOffset/>
<feGaussianBlur stdDeviation="2"/>
<feComposite in2="hardAlpha" operator="out"/>
<feColorMatrix type="matrix" values="0 0 0 0 0.0809653 0 0 0 0 0.25716 0 0 0 0 0.370833 0 0 0 0.73 0"/>
<feBlend mode="normal" in2="BackgroundImageFix" result="effect1_dropShadow_50_28"/>
<feBlend mode="normal" in="SourceGraphic" in2="effect1_dropShadow_50_28" result="shape"/>
</filter>
<linearGradient id="paint0_linear_50_28" x1="135.918" y1="-7.49943" x2="135.918" y2="36.5034" gradientUnits="userSpaceOnUse">
<stop offset="0.305208" stop-color="#FFD84D"/>
<stop offset="1" stop-color="#FFAA14"/>
</linearGradient>
<linearGradient id="paint1_linear_50_28" x1="135.918" y1="-7.49943" x2="135.918" y2="36.5034" gradientUnits="userSpaceOnUse">
<stop offset="0.305208" stop-color="#FFD84D"/>
<stop offset="1" stop-color="#FFAA14"/>
</linearGradient>
<linearGradient id="paint2_linear_50_28" x1="135.918" y1="-7.49943" x2="135.918" y2="36.5034" gradientUnits="userSpaceOnUse">
<stop offset="0.305208" stop-color="#FFD84D"/>
<stop offset="1" stop-color="#FFAA14"/>
</linearGradient>
</defs>
</svg>
